<?xml version="1.0" encoding="UTF-8"?>
<svg xmlns="http://www.w3.org/2000/svg" viewBox="0 0 575.78 200">
  <defs>
    <style>
      .cls-1 {
        fill: #222;
      }

      .cls-1, .cls-2 {
        stroke-width: 0px;
      }

      .cls-2 {
        fill: #51deb7;
      }
    </style>
  </defs>
  <g id="_11_icon_" data-name="11 (icon)">
    <path class="cls-2" d="M464.78,29.03h-1.39c-5.48,0-10.37,2.64-13.48,6.7-.57.68-1.1,1.39-1.57,2.17l-40.84,68c-4.82,8.01-2.2,18.51,5.82,23.33l1.19.72c8.01,4.82,18.51,2.2,23.33-5.82l8.55-14.24v72.11c0,9.35,7.65,17,17,17h1.39c9.35,0,17-7.65,17-17V46.03c0-9.35-7.65-17-17-17Z"/>
    <path class="cls-2" d="M573.36,85.9l-40.84-68c-.47-.78-1-1.49-1.57-2.17-3.11-4.06-8-6.7-13.48-6.7h-1.39c-9.35,0-17,7.65-17,17v135.97c0,9.35,7.65,17,17,17h1.39c9.35,0,17-7.65,17-17v-72.11l8.55,14.24c4.82,8.01,15.31,10.63,23.33,5.82l1.19-.72c8.01-4.82,10.63-15.31,5.82-23.33Z"/>
  </g>
  <g id="TIER">
    <g>
      <path class="cls-1" d="M64.29,164.86c-.99,0-2.69.22-4.84.5-3.16.41-7.1.93-10.3.93-9.04,0-13.43-7.1-13.43-21.71v-45.43h24c9.45,0,17.43-7.72,17.43-16.86s-7.98-16.86-17.43-16.86h-24v-18.29c0-9.77-7.78-17.43-17.71-17.43S0,37.37,0,47.14v99.43c0,36.26,13.16,53.14,41.43,53.14,10.64,0,19.99-1.97,27.81-5.88,6.47-3.39,9.62-8.11,9.62-14.41,0-8.58-5.99-14.57-14.57-14.57Z"/>
      <path class="cls-1" d="M111.13,0c-12.75,0-22,8.65-22,20.57,0,12.95,9.05,22,22,22,11.56,0,20.29-9.46,20.29-22,0-11.53-8.91-20.57-20.29-20.57Z"/>
      <path class="cls-1" d="M110.56,63.43c-10.09,0-18,7.66-18,17.43v100.86c0,9.77,7.91,17.43,18,17.43s17.71-7.66,17.71-17.43v-100.86c0-9.77-7.78-17.43-17.71-17.43Z"/>
      <path class="cls-1" d="M213.98,62.28c-21.06,0-38.04,6.59-50.46,19.59-12.59,13.17-18.97,29.75-18.97,49.27,0,20.69,6.59,37.48,19.57,49.88,12.88,12.59,30.04,18.98,51,18.98,14.78,0,28.67-3.72,41.31-11.06,4.82-2.89,7.27-7.05,7.27-12.37,0-2.38-.71-4.62-2.23-7.06-2.84-4.42-6.7-6.66-11.49-6.66-2.31,0-4.78.66-8,2.12-7.15,3.14-15.03,4.74-23.43,4.74-19.9,0-33.89-10.35-36.9-27.14h80.33c8.4,0,13.34-4.49,14.29-13.14v-6c0-17.85-6.11-32.71-18.16-44.18-11.84-11.26-26.68-16.97-44.13-16.97ZM212.56,92.57c16.7,0,27.6,9.84,27.99,25.14h-59.93c3.91-16.69,14.65-25.14,31.94-25.14Z"/>
      <path class="cls-1" d="M351.12,62.57c-11,0-20.45,4.4-28.13,13.1-1.71-7.08-8.57-12.24-17.02-12.24-11.11,0-18.29,7.63-18.29,19.43v98.86c0,9.77,7.91,17.43,18,17.43s17.71-7.66,17.71-17.43v-72.25c4.06-8.48,9.76-12.61,17.43-12.61h2c.59,0,1.57.08,2.47.15.87.07,1.68.13,2.1.13,18.19,0,22-9.94,22-18.29,0-10.69-9.2-16.29-18.29-16.29Z"/>
    </g>
  </g>
</svg>